<?xml version="1.0" encoding="UTF-8"?>
<svg version="1.1" xmlns="http://www.w3.org/2000/svg" width="225" height="225">
<path d="M0 0 C74.25 0 148.5 0 225 0 C225 74.25 225 148.5 225 225 C150.75 225 76.5 225 0 225 C0 150.75 0 76.5 0 0 Z " fill="#FDFDFE" transform="translate(0,0)"/>
<path d="M0 0 C0.85395355 -0.00412399 1.7079071 -0.00824799 2.58773804 -0.01249695 C3.5213768 -0.00171112 4.45501556 0.00907471 5.41694641 0.02018738 C6.40249512 0.0197493 7.38804382 0.01931122 8.40345764 0.01885986 C11.66637368 0.02095262 14.92877815 0.04430702 18.19160461 0.0677948 C20.45175903 0.07338901 22.71191707 0.07765993 24.97207642 0.08065796 C30.92503375 0.09212045 36.87777201 0.12159989 42.8306427 0.1547699 C48.90340715 0.18544042 54.97620694 0.19915685 61.04902649 0.21427917 C72.96774261 0.2464681 84.88629603 0.29768154 96.80488586 0.36076355 C96.80488586 4.45864003 94.65733876 6.14734813 92.05488586 9.04826355 C87.78684351 13.93922065 83.78008129 18.94744939 79.92988586 24.17326355 C74.2370931 31.87858411 68.25794488 39.32454645 62.15254211 46.70597839 C60.92134653 48.21776167 59.73550018 49.76618883 58.55488586 51.3177948 C57.68863586 52.32906433 57.68863586 52.32906433 56.80488586 53.36076355 C56.14488586 53.36076355 55.48488586 53.36076355 54.80488586 53.36076355 C53.32441711 51.8568573 53.32441711 51.8568573 51.61738586 49.79826355 C46.05569836 43.11642353 39.96616426 37.41263819 32.99238586 32.23576355 C32.29605042 31.71586853 31.59971497 31.19597351 30.88227844 30.6603241 C24.90234692 26.27697959 18.86201671 22.7131405 11.80488586 20.36076355 C12.41074524 21.12517761 13.01660461 21.88959167 13.64082336 22.6771698 C36.97579184 52.38390978 36.97579184 52.38390978 36.92988586 71.98576355 C36.93375305 73.64478699 36.93375305 73.64478699 36.93769836 75.33732605 C36.89387024 76.33506042 36.85004211 77.3327948 36.80488586 78.36076355 C36.79586243 79.09552917 36.78683899 79.8302948 36.77754211 80.58732605 C35.32253825 83.24022466 33.09453979 83.63712086 30.32246399 84.4896698 C29.59478821 84.69463074 28.86711243 84.89959167 28.11738586 85.11076355 C27.40904602 85.33119324 26.70070618 85.55162292 25.97090149 85.7787323 C17.87703172 88.18521989 17.87703172 88.18521989 13.80488586 87.36076355 C9.803373 84.81749194 8.13754311 81.46162061 6.78974915 77.00138855 C5.86580946 72.80175856 5.09567968 68.59753267 4.36738586 64.36076355 C3.79209146 61.21317958 3.20181564 58.06843193 2.61347961 54.92326355 C2.4669696 54.12734802 2.32045959 53.3314325 2.16950989 52.51139832 C0.42778274 43.12994141 -1.75797459 33.85452848 -3.97416687 24.5756073 C-7.65104181 8.82705819 -7.65104181 8.82705819 -7.19511414 3.36076355 C-4.99998675 0.5224054 -3.53680026 -0.01318062 0 0 Z " fill="#024096" transform="translate(56.19511413574219,34.63923645019531)"/>
<path d="M0 0 C2.20207494 4.30952946 2.20207494 4.30952946 1.3125 7.34912109 C0.879375 8.14914551 0.44625 8.94916992 0 9.7734375 C-0.47228027 10.67296143 -0.94456055 11.57248535 -1.43115234 12.49926758 C-1.94887207 13.44825928 -2.4665918 14.39725098 -3 15.375 C-4.0380501 17.36370087 -5.07190914 19.354595 -6.1015625 21.34765625 C-6.60461914 22.31719238 -7.10767578 23.28672852 -7.62597656 24.28564453 C-14.72933842 38.31819199 -19.09369705 53.59540652 -22 69 C-22.71953857 69.19110352 -23.43907715 69.38220703 -24.18041992 69.57910156 C-41.57513162 74.14361183 -41.57513162 74.14361183 -58.77734375 79.37109375 C-61 80 -61 80 -64 80 C-63.96519531 78.99582031 -63.93039063 77.99164063 -63.89453125 76.95703125 C-63.35174703 54.77652221 -71.77576278 40.04960548 -86.0625 23.375 C-88 21 -88 21 -88 19 C-73.89484939 20.68113714 -59.94351814 34.82079289 -50.125 44.5625 C-49.34781616 45.33146606 -49.34781616 45.33146606 -48.55493164 46.1159668 C-45 49.74169193 -45 49.74169193 -45 52 C-36.67457986 43.8661382 -29.62600713 34.60629711 -22.578125 25.37109375 C-3.21224456 0 -3.21224456 0 0 0 Z " fill="#F9D806" transform="translate(156,36)"/>
<path d="M0 0 C0.66 0 1.32 0 2 0 C4.17382685 6.1497637 6.32608546 12.30676802 8.46362305 18.46923828 C9.19306725 20.56406072 9.92740376 22.65718633 10.66674805 24.74853516 C11.72960358 27.75769573 12.77462383 30.77255163 13.81640625 33.7890625 C14.14967422 34.72054108 14.4829422 35.65201965 14.8263092 36.61172485 C17.85494664 45.48892494 17.85494664 45.48892494 16 50 C11.95155274 53.45991315 7.77796013 54.91891961 2.703125 56.359375 C2.02828064 56.55347961 1.35343628 56.74758423 0.65814209 56.9475708 C-0.75565077 57.35225452 -2.17086616 57.75199876 -3.58740234 58.14697266 C-5.76057681 58.75294928 -7.92929473 59.37313635 -10.09765625 59.99609375 C-20.64238614 63 -20.64238614 63 -23 63 C-21.78980615 40.81311284 -10.04242479 19.34603359 0 0 Z " fill="#054196" transform="translate(157,41)"/>
<path d="M0 0 C4.85857844 2.29678253 7.63468979 5.17840611 10 10 C10.90866304 15.68680129 10.17922718 20.1176154 7 25 C4.09290401 28.37598244 1.32795654 30.63599225 -3.1484375 31.3359375 C-8.62788267 31.43206812 -11.69774526 30.70194013 -16 27 C-20.39751888 22.00822181 -21.36229362 19.08964152 -21.27734375 12.5390625 C-20.72884616 7.51760573 -18.00051272 4.92730447 -14.4375 1.625 C-9.56643525 -0.67768515 -5.29813119 -0.77379561 0 0 Z " fill="#F8D707" transform="translate(117,46)"/>
<path d="M0 0 C13.41040858 -0.36909381 13.41040858 -0.36909381 15.921875 1.203125 C18.0935653 4.82260884 17.58289765 8.94621178 17 13 C15.4375 15.6875 15.4375 15.6875 13 17 C9.25 16.75 9.25 16.75 6 16 C6 18.31 6 20.62 6 23 C4.02 23 2.04 23 0 23 C0 15.41 0 7.82 0 0 Z " fill="#134A9C" transform="translate(58,136)"/>
<path d="M0 0 C1.98 0 3.96 0 6 0 C6 2.64 6 5.28 6 8 C8.31 8 10.62 8 13 8 C13 5.36 13 2.72 13 0 C14.98 0 16.96 0 19 0 C19 7.26 19 14.52 19 22 C17.02 22 15.04 22 13 22 C13 19.03 13 16.06 13 13 C10.69 13 8.38 13 6 13 C6 15.97 6 18.94 6 22 C4.02 22 2.04 22 0 22 C0 14.74 0 7.48 0 0 Z " fill="#094298" transform="translate(18,131)"/>
<path d="M0 0 C3.7742893 1.16659851 5.30801297 1.74050024 7.4375 5.0625 C8.1474846 10.0323922 8.22867716 11.91169686 5.375 16.0625 C2.4375 18.0625 2.4375 18.0625 -1.0625 18.75 C-4.5625 18.0625 -4.5625 18.0625 -7.5625 15.5 C-9.5625 12.0625 -9.5625 12.0625 -9.6875 8.5 C-7.91770545 3.09229442 -5.94061325 0.10422129 0 0 Z " fill="#0D4699" transform="translate(48.5625,134.9375)"/>
<path d="M0 0 C4.93731454 1.46290801 4.93731454 1.46290801 6.375 4 C6.5625 7.6875 6.5625 7.6875 6.375 11 C1.92 11.495 1.92 11.495 -2.625 12 C-1.861875 12.144375 -1.09875 12.28875 -0.3125 12.4375 C2.375 13 2.375 13 5.375 14 C5.375 14.99 5.375 15.98 5.375 17 C2.16397726 18.60551137 -1.14199208 18.46807221 -4.625 18 C-7.125 16.5625 -7.125 16.5625 -8.625 14 C-9.57136153 9.1690497 -9.29525074 6.01553143 -6.5625 1.875 C-3.625 0 -3.625 0 0 0 Z " fill="#0C4598" transform="translate(85.625,135)"/>
<path d="M0 0 C0.33 0 0.66 0 1 0 C1.36849527 2.86992787 1.53565101 5.10112811 0.01708984 7.64941406 C-1.36717668 9.37166933 -2.81088902 11.00409332 -4.3125 12.625 C-5.30937025 13.74149468 -6.30548381 14.85866551 -7.30078125 15.9765625 C-7.77209473 16.49508789 -8.2434082 17.01361328 -8.72900391 17.54785156 C-10.13645478 19.11008348 -10.13645478 19.11008348 -11.73046875 21.3984375 C-12.14941406 21.92695312 -12.56835938 22.45546875 -13 23 C-13.66 23 -14.32 23 -15 23 C-16.48046875 21.49609375 -16.48046875 21.49609375 -18.1875 19.4375 C-21.60742513 15.41322219 -25.22789959 11.69146168 -29 8 C-29.98040065 7.02206887 -30.95971147 6.04304287 -31.9375 5.0625 C-32.618125 4.381875 -33.29875 3.70125 -34 3 C-32.68 3 -31.36 3 -30 3 C-29.67 2.34 -29.34 1.68 -29 1 C-28.46375 1.9075 -27.9275 2.815 -27.375 3.75 C-25.04853169 7.17080009 -22.77015584 9.15048959 -19 11 C-14.22976255 11.83928774 -10.94221183 11.48855428 -6.625 9.25 C-3.24406894 6.35205909 -1.40820705 4.22462114 0 0 Z " fill="#083F91" transform="translate(126,65)"/>
<path d="M0 0 C1.6796875 1.09765625 1.6796875 1.09765625 3 3 C3.29296875 6.13671875 3.29296875 6.13671875 3.1875 9.6875 C3.16042969 10.86699219 3.13335937 12.04648438 3.10546875 13.26171875 C3.07066406 14.16535156 3.03585938 15.06898438 3 16 C1.68 16 0.36 16 -1 16 C-2.216875 16.020625 -3.43375 16.04125 -4.6875 16.0625 C-8 16 -8 16 -9 15 C-9.04080783 13.00041636 -9.04254356 10.99954746 -9 9 C-3.375 6 -3.375 6 0 6 C-0.33 5.01 -0.66 4.02 -1 3 C-3.31 3 -5.62 3 -8 3 C-8 2.34 -8 1.68 -8 1 C-5.20129973 -0.39935013 -3.09501208 -0.25265405 0 0 Z " fill="#26539D" transform="translate(140,137)"/>
<path d="M0 0 C3.375 0.9375 3.375 0.9375 5.375 3.9375 C5.375 5.5875 5.375 7.2375 5.375 8.9375 C2.075 9.2675 -1.225 9.5975 -4.625 9.9375 C-4.295 10.9275 -3.965 11.9175 -3.625 12.9375 C-0.985 13.2675 1.655 13.5975 4.375 13.9375 C4.045 14.5975 3.715 15.2575 3.375 15.9375 C-3.98178392 16.41991206 -3.98178392 16.41991206 -6.625 14.4375 C-8.05479854 10.86300366 -8.30747301 7.72987842 -7.625 3.9375 C-5.36085821 0.22430746 -4.37048589 -0.0753532 0 0 Z " fill="#154696" transform="translate(189.625,137.0625)"/>
<path d="M0 0 C0.99 0 1.98 0 3 0 C3.33 2.64 3.66 5.28 4 8 C4.33 7.67 4.66 7.34 5 7 C7.9375 6.75 7.9375 6.75 11 7 C13.42130331 10.63195496 13.21022785 12.38349348 13.125 16.6875 C13.10695313 17.86699219 13.08890625 19.04648438 13.0703125 20.26171875 C13.03550781 21.61716797 13.03550781 21.61716797 13 23 C12.01 23 11.02 23 10 23 C9.67 18.71 9.34 14.42 9 10 C7.35 10.33 5.7 10.66 4 11 C3.67 14.96 3.34 18.92 3 23 C2.01 23 1.02 23 0 23 C0 15.41 0 7.82 0 0 Z " fill="#164897" transform="translate(114,130)"/>
<path d="M0 0 C1.32 0.33 2.64 0.66 4 1 C4.33 0.67 4.66 0.34 5 0 C7.9375 -0.1875 7.9375 -0.1875 11 0 C13 2 13 2 13.1953125 5.2578125 C13.16050781 7.17207031 13.16050781 7.17207031 13.125 9.125 C13.10695312 10.40632812 13.08890625 11.68765625 13.0703125 13.0078125 C13.04710937 13.99523437 13.02390625 14.98265625 13 16 C12.01 16 11.02 16 10 16 C9.67 11.71 9.34 7.42 9 3 C7.35 3.33 5.7 3.66 4 4 C3.67 7.96 3.34 11.92 3 16 C2.01 16 1.02 16 0 16 C0 10.72 0 5.44 0 0 Z " fill="#24519C" transform="translate(165,137)"/>
<path d="M0 0 C0.33 0.99 0.66 1.98 1 3 C0.37351562 2.96519531 -0.25296875 2.93039063 -0.8984375 2.89453125 C-1.71570313 2.86746094 -2.53296875 2.84039062 -3.375 2.8125 C-4.59316406 2.76029297 -4.59316406 2.76029297 -5.8359375 2.70703125 C-6.55007812 2.80371094 -7.26421875 2.90039062 -8 3 C-10.06520632 6.09780948 -10.29477024 6.9540481 -10.3125 10.5 C-10.32925781 11.2734375 -10.34601563 12.046875 -10.36328125 12.84375 C-9.91393678 15.51082686 -9.13799842 16.38882894 -7 18 C-4.54190002 18.2500773 -4.54190002 18.2500773 -2 18 C-0.68 18 0.64 18 2 18 C1 19.5 1 19.5 -1 21 C-7.96 21.77333333 -7.96 21.77333333 -11.4375 19.1875 C-13.95648004 15.66092794 -14.39109554 12.3684457 -14.359375 8.0703125 C-13.71820971 4.3766429 -11.64068388 2.57781045 -9 0 C-5.93109813 -1.53445094 -3.29905734 -0.54984289 0 0 Z " fill="#1D4E9D" transform="translate(109,132)"/>
<path d="M0 0 C1.65 0 3.3 0 5 0 C4.01 0.33 3.02 0.66 2 1 C2 1.66 2 2.32 2 3 C3.32 3.33 4.64 3.66 6 4 C6.66 2.68 7.32 1.36 8 0 C9.32 0 10.64 0 12 0 C13.36952673 2.73905345 13.12621361 4.97087332 13 8 C12.67 8.66 12.34 9.32 12 10 C8.04 9.67 4.08 9.34 0 9 C0 6.03 0 3.06 0 0 Z " fill="#ECF3F6" transform="translate(179,157)"/>
<path d="M0 0 C2.45442157 3.68163235 2.81504512 6.72517149 2 11 C-0.1875 14 -0.1875 14 -3 16 C-5.8125 16.3125 -5.8125 16.3125 -8 16 C-7.34 15.01 -6.68 14.02 -6 13 C-6.33 12.34 -6.66 11.68 -7 11 C-6.01 11 -5.02 11 -4 11 C-4.26393501 7.56769552 -4.26393501 7.56769552 -5 4 C-5.99 3.34 -6.98 2.68 -8 2 C-4.91190305 0.23537317 -3.76687864 0 0 0 Z " fill="#094398" transform="translate(54,137)"/>
<path d="M0 0 C4.75 0.75 4.75 0.75 7 3 C7.55966495 6.38155454 7.56163633 9.61927647 7 13 C4.5 15.625 4.5 15.625 2 17 C1.01 16.34 0.02 15.68 -1 15 C-0.34 14.34 0.32 13.68 1 13 C0.67 12.34 0.34 11.68 0 11 C0.04125 10.01 0.0825 9.02 0.125 8 C0.063125 6.515 0.063125 6.515 0 5 C-0.99 4.34 -1.98 3.68 -3 3 C-2.01 2.67 -1.02 2.34 0 2 C0 1.34 0 0.68 0 0 Z " fill="#0A4599" transform="translate(68,136)"/>
<path d="M0 0 C0.66 0 1.32 0 2 0 C2 0.66 2 1.32 2 2 C2.99 1.34 3.98 0.68 5 0 C7.5625 -0.25 7.5625 -0.25 10 0 C12 2 12 2 12.1953125 5.2578125 C12.16050781 7.17207031 12.16050781 7.17207031 12.125 9.125 C12.10695312 10.40632812 12.08890625 11.68765625 12.0703125 13.0078125 C12.04710937 13.99523437 12.02390625 14.98265625 12 16 C11.34 16 10.68 16 10 16 C9.67 12.04 9.34 8.08 9 4 C7.68 3.67 6.36 3.34 5 3 C2.41073669 5.58926331 2.62601957 7.02705279 2.375 10.625 C2.30023438 11.62789062 2.22546875 12.63078125 2.1484375 13.6640625 C2.09945312 14.43492187 2.05046875 15.20578125 2 16 C1.34 16 0.68 16 0 16 C0 10.72 0 5.44 0 0 Z " fill="#013592" transform="translate(148,137)"/>
<path d="M0 0 C0.99 0 1.98 0 3 0 C3.03758423 0.93851807 3.03758423 0.93851807 3.07592773 1.89599609 C3.19175273 4.72254619 3.31453985 7.54875169 3.4375 10.375 C3.47681641 11.35984375 3.51613281 12.3446875 3.55664062 13.359375 C3.59853516 14.30039063 3.64042969 15.24140625 3.68359375 16.2109375 C3.72025146 17.08024902 3.75690918 17.94956055 3.79467773 18.84521484 C3.87401544 21.0483262 3.87401544 21.0483262 5 23 C3.35 22.67 1.7 22.34 0 22 C0 14.74 0 7.48 0 0 Z " fill="#28559F" transform="translate(198,130)"/>
<path d="M0 0 C2.5625 0.1875 2.5625 0.1875 4.5625 2.1875 C3.99431818 7.75568182 3.99431818 7.75568182 2.5625 9.1875 C0.0625 9.3125 0.0625 9.3125 -2.4375 9.1875 C-3.4375 8.1875 -3.4375 8.1875 -3.5625 4.6875 C-3.40444215 0.26188017 -3.40444215 0.26188017 0 0 Z " fill="#93ABC9" transform="translate(163.4375,156.8125)"/>
<path d="M0 0 C1.6796875 1.09765625 1.6796875 1.09765625 3 3 C3.29296875 6.13671875 3.29296875 6.13671875 3.1875 9.6875 C3.16042969 10.86699219 3.13335937 12.04648438 3.10546875 13.26171875 C3.07066406 14.16535156 3.03585938 15.06898438 3 16 C2.34 16 1.68 16 1 16 C1 13.36 1 10.72 1 8 C-0.98 8.33 -2.96 8.66 -5 9 C-5 8.34 -5 7.68 -5 7 C-3.35 6.67 -1.7 6.34 0 6 C-0.33 5.01 -0.66 4.02 -1 3 C-3.31 3 -5.62 3 -8 3 C-8 2.34 -8 1.68 -8 1 C-5.20129973 -0.39935013 -3.09501208 -0.25265405 0 0 Z " fill="#1D4D99" transform="translate(140,137)"/>
<path d="M0 0 C1.99954746 -0.04254356 4.00041636 -0.04080783 6 0 C7 1 7 1 7.125 3.9375 C7 7 7 7 6 9 C4.02 9 2.04 9 0 9 C0 6.03 0 3.06 0 0 Z " fill="#87A3C6" transform="translate(151,157)"/>
<path d="M0 0 C0.33 0 0.66 0 1 0 C1 7.26 1 14.52 1 22 C-0.98 22 -2.96 22 -5 22 C-4.67 19.36 -4.34 16.72 -4 14 C-3.01 13.67 -2.02 13.34 -1 13 C-0.67 8.71 -0.34 4.42 0 0 Z " fill="#1F529C" transform="translate(36,131)"/>
<path d="M0 0 C0.99 0 1.98 0 3 0 C3.66 1.32 4.32 2.64 5 4 C5.33 2.68 5.66 1.36 6 0 C6.66 0 7.32 0 8 0 C8 2.97 8 5.94 8 9 C5 8 5 8 3 5 C2.67 6.32 2.34 7.64 2 9 C1.34 9 0.68 9 0 9 C0 6.03 0 3.06 0 0 Z " fill="#5F82B3" transform="translate(141,157)"/>
<path d="M0 0 C0 2.31 0 4.62 0 7 C-1.98 7 -3.96 7 -6 7 C-5.67 6.01 -5.34 5.02 -5 4 C-6.65 4 -8.3 4 -10 4 C-9.67 3.01 -9.34 2.02 -9 1 C-8.05125 1.020625 -7.1025 1.04125 -6.125 1.0625 C-3.66231667 1.01324633 -2.19420831 0 0 0 Z " fill="#3F6DAE" transform="translate(92,139)"/>
<path d="M0 0 C1.32 0.33 2.64 0.66 4 1 C4 5.29 4 9.58 4 14 C3.01 14 2.02 14 1 14 C0.67 9.38 0.34 4.76 0 0 Z " fill="#1F4F9A" transform="translate(123,139)"/>
<path d="M0 0 C0.721875 0.825 1.44375 1.65 2.1875 2.5 C4.69901681 5.2099196 4.69901681 5.2099196 7.5625 5.3125 C8.366875 5.209375 9.17125 5.10625 10 5 C11.32 5 12.64 5 14 5 C13 6.5 13 6.5 11 8 C4.11945392 8.76450512 4.11945392 8.76450512 0.4375 6.25 C-1 4 -1 4 -0.75 1.75 C-0.5025 1.1725 -0.255 0.595 0 0 Z " fill="#124494" transform="translate(97,145)"/>
<path d="M0 0 C0.33 0 0.66 0 1 0 C1.34279875 3.71093254 1.27288035 5.55866731 -0.71484375 8.7734375 C-1.44832031 9.63195312 -2.18179688 10.49046875 -2.9375 11.375 C-3.66839844 12.24898437 -4.39929688 13.12296875 -5.15234375 14.0234375 C-5.76207031 14.67570312 -6.37179688 15.32796875 -7 16 C-7.33 16 -7.66 16 -8 16 C-8.33 14.02 -8.66 12.04 -9 10 C-7.8553125 9.38125 -7.8553125 9.38125 -6.6875 8.75 C-2.96798454 6.32798993 -1.3960808 4.1882424 0 0 Z " fill="#24477E" transform="translate(126,65)"/>
<path d="M0 0 C1.32 0 2.64 0 4 0 C5.36952673 2.73905345 5.12621361 4.97087332 5 8 C4.67 8.66 4.34 9.32 4 10 C2.35 9.67 0.7 9.34 -1 9 C-0.67 8.34 -0.34 7.68 0 7 C0.99 7.33 1.98 7.66 3 8 C3 7.01 3 6.02 3 5 C1.68 4.67 0.36 4.34 -1 4 C-0.67 2.68 -0.34 1.36 0 0 Z " fill="#96ADCB" transform="translate(187,157)"/>
<path d="M0 0 C2.0625 0.4375 2.0625 0.4375 4 1 C4 2.98 4 4.96 4 7 C2.35 7.33 0.7 7.66 -1 8 C-1.04241723 5.66705225 -1.04092937 3.33297433 -1 1 C-0.67 0.67 -0.34 0.34 0 0 Z " fill="#DDE8EF" transform="translate(65,140)"/>
<path d="M0 0 C0.66 0 1.32 0 2 0 C2.99 2.97 3.98 5.94 5 9 C4.34 9 3.68 9 3 9 C3 8.34 3 7.68 3 7 C1.02 7.66 -0.96 8.32 -3 9 C-2.01 6.03 -1.02 3.06 0 0 Z " fill="#587DAE" transform="translate(199,157)"/>
<path d="M0 0 C1.98 0.495 1.98 0.495 4 1 C4 3.31 4 5.62 4 8 C2.35 7.67 0.7 7.34 -1 7 C-0.67 4.69 -0.34 2.38 0 0 Z " fill="#E1E9F0" transform="translate(46,140)"/>
<path d="M0 0 C1.32 0 2.64 0 4 0 C4.042721 1.66611905 4.04063832 3.33382885 4 5 C3 6 3 6 0.4375 6.0625 C-0.7690625 6.0315625 -0.7690625 6.0315625 -2 6 C-2 2 -2 2 0 0 Z " fill="#E9EFF4" transform="translate(136,145)"/>
<path d="M0 0 C1.67542976 0.28604898 3.34385343 0.61781233 5 1 C5 2.32 5 3.64 5 5 C2.36 5 -0.28 5 -3 5 C-1.125 1.125 -1.125 1.125 0 0 Z " fill="#E7EFF3" transform="translate(187,139)"/>
<path d="M0 0 C2 2 2 2 2.265625 4.93359375 C2.26046875 6.08988281 2.2553125 7.24617188 2.25 8.4375 C2.25515625 9.59121094 2.2603125 10.74492188 2.265625 11.93359375 C2 15 2 15 0 18 C-1.33257403 5.33029613 -1.33257403 5.33029613 0 0 Z " fill="#33567F" transform="translate(91,98)"/>
<path d="M0 0 C1.65 0 3.3 0 5 0 C4.01 0.33 3.02 0.66 2 1 C2 1.66 2 2.32 2 3 C2.99 3 3.98 3 5 3 C5 3.66 5 4.32 5 5 C4.01 5 3.02 5 2 5 C2 5.99 2 6.98 2 8 C2.99 8.33 3.98 8.66 5 9 C3.35 9 1.7 9 0 9 C0 6.03 0 3.06 0 0 Z " fill="#5376AA" transform="translate(179,157)"/>
<path d="M0 0 C0.66 0 1.32 0 2 0 C2 3.63 2 7.26 2 11 C1.34 11 0.68 11 0 11 C0 8.36 0 5.72 0 3 C-1.98 3.33 -3.96 3.66 -6 4 C-6 3.34 -6 2.68 -6 2 C-4.02 2 -2.04 2 0 2 C0 1.34 0 0.68 0 0 Z " fill="#003591" transform="translate(141,142)"/>
<path d="M0 0 C0.66 0 1.32 0 2 0 C2.33 2.31 2.66 4.62 3 7 C-0.63 7 -4.26 7 -8 7 C-8 6.67 -8 6.34 -8 6 C-5.36 5.67 -2.72 5.34 0 5 C0 3.35 0 1.7 0 0 Z " fill="#2C56A0" transform="translate(192,139)"/>
<path d="M0 0 C2.33944736 0.28730055 4.6739143 0.61936779 7 1 C5.6875 2.5 5.6875 2.5 4 4 C3.01 4 2.02 4 1 4 C0.67 4.66 0.34 5.32 0 6 C-0.38218767 4.34385343 -0.71395102 2.67542976 -1 1 C-0.67 0.67 -0.34 0.34 0 0 Z " fill="#1A509D" transform="translate(45,135)"/>
<path d="M0 0 C0.33 0.99 0.66 1.98 1 3 C-2.3 2.67 -5.6 2.34 -9 2 C-9 1.34 -9 0.68 -9 0 C-5.93109813 -1.53445094 -3.29905734 -0.54984289 0 0 Z " fill="#29559E" transform="translate(109,132)"/>
<path d="M0 0 C0.66 0.33 1.32 0.66 2 1 C2.08090971 2.62418745 2.13914995 4.24951745 2.1875 5.875 C2.22230469 6.77992188 2.25710937 7.68484375 2.29296875 8.6171875 C2.19628906 9.40351563 2.09960938 10.18984375 2 11 C1.01 11.66 0.02 12.32 -1 13 C-1.02696365 11.20841511 -1.04637917 9.41671527 -1.0625 7.625 C-1.07410156 6.62726563 -1.08570313 5.62953125 -1.09765625 4.6015625 C-1 2 -1 2 0 0 Z " fill="#E8F1F5" transform="translate(56,137)"/>
<path d="M0 0 C0.66 0 1.32 0 2 0 C2 0.66 2 1.32 2 2 C2.99 1.34 3.98 0.68 5 0 C7.6875 -0.125 7.6875 -0.125 10 0 C9.67 0.99 9.34 1.98 9 3 C6.23735711 3.59732819 3.83967231 4 1 4 C0.67 2.68 0.34 1.36 0 0 Z " fill="#194796" transform="translate(148,137)"/>
<path d="M0 0 C5.75 0.75 5.75 0.75 8 3 C7.01 3.33 6.02 3.66 5 4 C4.67 4.99 4.34 5.98 4 7 C0 2.25 0 2.25 0 0 Z " fill="#EAD31E" transform="translate(68,55)"/>
<path d="M0 0 C0.66 0 1.32 0 2 0 C2 2.97 2 5.94 2 9 C1.01 8.67 0.02 8.34 -1 8 C-1.8125 6.1875 -1.8125 6.1875 -2 4 C-1.0625 1.75 -1.0625 1.75 0 0 Z " fill="#5478AA" transform="translate(175,157)"/>
<path d="M0 0 C-2.3915061 2.3915061 -3.71447284 2.51919115 -7 3 C-7.99 3 -8.98 3 -10 3 C-9.67 2.01 -9.34 1.02 -9 0 C-5.93109813 -1.53445094 -3.29905734 -0.54984289 0 0 Z " fill="#1A4A97" transform="translate(193,138)"/>
<path d="M0 0 C0.66 0 1.32 0 2 0 C2 0.99 2 1.98 2 3 C4.97 3 7.94 3 11 3 C11 3.33 11 3.66 11 4 C8.03 4 5.06 4 2 4 C1.67 4.99 1.34 5.98 1 7 C0.67 7 0.34 7 0 7 C0 4.69 0 2.38 0 0 Z " fill="#013B92" transform="translate(182,141)"/>
<path d="M0 0 C2.475 0.495 2.475 0.495 5 1 C5.33 1.99 5.66 2.98 6 4 C4.125 4.625 4.125 4.625 2 5 C1.34 4.34 0.68 3.68 0 3 C0 2.01 0 1.02 0 0 Z " fill="#043E96" transform="translate(85,136)"/>
<path d="M0 0 C0.66 0.33 1.32 0.66 2 1 C-0.31 3.64 -2.62 6.28 -5 9 C-5.66 8.67 -6.32 8.34 -7 8 C-4.69 5.36 -2.38 2.72 0 0 Z " fill="#E2CF2D" transform="translate(154,36)"/>
<path d="M0 0 C-0.56371414 3.26954202 -1.49962266 4.82575883 -4 7 C-4.33 5.02 -4.66 3.04 -5 1 C-2 0 -2 0 0 0 Z " fill="#16468C" transform="translate(122,74)"/>
<path d="M0 0 C1.32 0 2.64 0 4 0 C3.67 1.65 3.34 3.3 3 5 C1.68 4.67 0.36 4.34 -1 4 C-0.67 2.68 -0.34 1.36 0 0 Z " fill="#688AB5" transform="translate(187,157)"/>
<path d="M0 0 C0.66 0.66 1.32 1.32 2 2 C0.625 4.5 0.625 4.5 -1 7 C-1.66 7 -2.32 7 -3 7 C-2.25 2.25 -2.25 2.25 0 0 Z " fill="#083D92" transform="translate(99,133)"/>
</svg>
